<?xml version="1.0" encoding="UTF-8"?>
<svg width="24px" height="24px" viewBox="0 0 24 24" version="1.1" xmlns="http://www.w3.org/2000/svg">
  <g transform="translate(0, 0)" fill="none">
    <path d="M22.5 12.5c0-1.58-.875-2.95-2.148-3.6.154-.435.238-.905.238-1.4 0-2.21-1.71-3.998-3.818-3.998-.47 0-.92.084-1.336.25C14.818 2.415 13.51 1.5 12 1.5s-2.816.917-3.437 2.25a3.606 3.606 0 00-1.336-.25c-2.11 0-3.818 1.79-3.818 4 0 .494.083.964.237 1.4-1.272.65-2.147 2.018-2.147 3.6 0 1.495.782 2.798 1.942 3.486-.02.17-.032.34-.032.514 0 2.21 1.708 4 3.818 4 .47 0 .92-.086 1.335-.25.62 1.334 1.926 2.25 3.437 2.25 1.512 0 2.818-.916 3.437-2.25.415.163.865.248 1.336.248 2.11 0 3.818-1.79 3.818-4 0-.174-.012-.344-.033-.513 1.158-.687 1.943-1.99 1.943-3.484v-.001z" fill="#1DA1F2"></path>
    <path d="M10.446 13.832l-2.57-2.57a.75.75 0 111.06-1.06l2.22 2.22 4.5-4.5a.75.75 0 111.06 1.06l-5.25 5.25a.747.747 0 01-1.06-.01z" fill="#FFFFFF"></path>
  </g>
</svg>
